<svg width="20" height="20" viewBox="0 0 20 20" fill="none" xmlns="http://www.w3.org/2000/svg">
<path d="M9.99949 16.7066C10.9455 16.7066 11.8094 16.6036 12.5974 16.4256L10.8405 14.6686C10.5675 14.6896 10.2905 14.7066 9.99949 14.7066C4.64862 14.7066 2.57567 10.8607 2.07368 9.70676C2.45062 8.86559 2.95971 8.09015 3.58165 7.40982L2.18368 6.01185C0.645719 7.67881 0.0627332 9.35777 0.0517335 9.39077C-0.0172445 9.59613 -0.0172445 9.8184 0.0517335 10.0238C0.072733 10.0898 2.36668 16.7066 9.99949 16.7066ZM9.99949 2.70693C8.16254 2.70693 6.65357 3.10292 5.3956 3.68791L1.70669 0L0.292728 1.41397L18.2923 19.4135L19.7063 17.9996L16.3873 14.6806C19.0013 12.7297 19.9342 10.0658 19.9482 10.0238C20.0172 9.8184 20.0172 9.59613 19.9482 9.39077C19.9262 9.32377 17.6323 2.70693 9.99949 2.70693ZM14.9714 13.2647L12.6914 10.9847C12.8814 10.5947 12.9994 10.1658 12.9994 9.70676C12.9994 8.0658 11.6405 6.70684 9.99949 6.70684C9.5405 6.70684 9.11151 6.82483 8.72252 7.01583L6.91457 5.20787C7.90706 4.86729 8.95022 4.69788 9.99949 4.70688C15.3504 4.70688 17.4233 8.55279 17.9253 9.70676C17.6233 10.3987 16.7593 12.0487 14.9714 13.2647Z" fill="#9E9E9E"/>
</svg>
